<svg width="47" height="47" viewBox="0 0 47 47" fill="none" xmlns="http://www.w3.org/2000/svg">
<path fill-rule="evenodd" clip-rule="evenodd" d="M18.625 39.5833C18.625 40.2685 18.3572 40.9256 17.8806 41.41C17.4039 41.8945 16.7574 42.1667 16.0833 42.1667H13.5417C12.8676 42.1667 12.2211 41.8945 11.7444 41.41C11.2678 40.9256 11 40.2685 11 39.5833V8.58333C11 7.89819 11.2678 7.24111 11.7444 6.75664C12.2211 6.27217 12.8676 6 13.5417 6H16.0833C16.7574 6 17.4039 6.27217 17.8806 6.75664C18.3572 7.24111 18.625 7.89819 18.625 8.58333V39.5833ZM36.4167 39.5833C36.4167 40.2685 36.1489 40.9256 35.6722 41.41C35.1956 41.8945 34.5491 42.1667 33.875 42.1667H31.3333C30.6592 42.1667 30.0128 41.8945 29.5361 41.41C29.0594 40.9256 28.7917 40.2685 28.7917 39.5833V8.58333C28.7917 7.89819 29.0594 7.24111 29.5361 6.75664C30.0128 6.27217 30.6592 6 31.3333 6H33.875C34.5491 6 35.1956 6.27217 35.6722 6.75664C36.1489 7.24111 36.4167 7.89819 36.4167 8.58333V39.5833Z" fill="#504CC8"/>
</svg>
