<svg width="32" height="32" viewBox="0 0 32 32" fill="none" xmlns="http://www.w3.org/2000/svg">
<path fill-rule="evenodd" clip-rule="evenodd" d="M13.3333 24C13.3333 24.3536 13.1929 24.6928 12.9428 24.9428C12.6928 25.1929 12.3536 25.3333 12 25.3333H10.6667C10.313 25.3333 9.9739 25.1929 9.72385 24.9428C9.4738 24.6928 9.33333 24.3536 9.33333 24V8C9.33333 7.64638 9.4738 7.30724 9.72385 7.05719C9.9739 6.80714 10.313 6.66667 10.6667 6.66667H12C12.3536 6.66667 12.6928 6.80714 12.9428 7.05719C13.1929 7.30724 13.3333 7.64638 13.3333 8V24ZM22.6667 24C22.6667 24.3536 22.5262 24.6928 22.2761 24.9428C22.0261 25.1929 21.6869 25.3333 21.3333 25.3333H20C19.6464 25.3333 19.3072 25.1929 19.0572 24.9428C18.8071 24.6928 18.6667 24.3536 18.6667 24V8C18.6667 7.64638 18.8071 7.30724 19.0572 7.05719C19.3072 6.80714 19.6464 6.66667 20 6.66667H21.3333C21.6869 6.66667 22.0261 6.80714 22.2761 7.05719C22.5262 7.30724 22.6667 7.64638 22.6667 8V24Z" fill="#504CC8"/>
</svg>
