<svg width="32" height="32" viewBox="0 0 32 32" fill="none" xmlns="http://www.w3.org/2000/svg">
<path fill-rule="evenodd" clip-rule="evenodd" d="M13 24.3333C13 24.687 12.8595 25.0261 12.6095 25.2761C12.3594 25.5262 12.0203 25.6667 11.6667 25.6667H10.3333C9.97971 25.6667 9.64057 25.5262 9.39052 25.2761C9.14048 25.0261 9 24.687 9 24.3333V8.33333C9 7.97971 9.14048 7.64057 9.39052 7.39052C9.64057 7.14048 9.97971 7 10.3333 7H11.6667C12.0203 7 12.3594 7.14048 12.6095 7.39052C12.8595 7.64057 13 7.97971 13 8.33333V24.3333ZM22.3333 24.3333C22.3333 24.687 22.1929 25.0261 21.9428 25.2761C21.6928 25.5262 21.3536 25.6667 21 25.6667H19.6667C19.313 25.6667 18.9739 25.5262 18.7239 25.2761C18.4738 25.0261 18.3333 24.687 18.3333 24.3333V8.33333C18.3333 7.97971 18.4738 7.64057 18.7239 7.39052C18.9739 7.14048 19.313 7 19.6667 7H21C21.3536 7 21.6928 7.14048 21.9428 7.39052C22.1929 7.64057 22.3333 7.97971 22.3333 8.33333V24.3333Z" fill="#959595"/>
</svg>
