<svg width="47" height="47" viewBox="0 0 47 47" fill="none" xmlns="http://www.w3.org/2000/svg">
<path d="M41.9867 20.9933L11.6717 5.83584C11.2627 5.64637 10.8128 5.56219 10.363 5.59096C9.91323 5.61974 9.47777 5.76057 9.09628 6.00062C8.7148 6.24067 8.39941 6.57232 8.17883 6.96538C7.95825 7.35845 7.83949 7.80044 7.83334 8.25112V38.5531C7.82952 39.0157 7.94511 39.4715 8.16893 39.8764C8.39276 40.2813 8.71725 40.6216 9.11104 40.8644C9.50483 41.1073 9.9546 41.2444 10.4169 41.2626C10.8792 41.2808 11.3383 41.1795 11.75 40.9683L41.9867 25.8108C42.4346 25.586 42.8111 25.2411 43.0743 24.8145C43.3374 24.388 43.4768 23.8967 43.4768 23.3956C43.4768 22.8944 43.3374 22.4031 43.0743 21.9766C42.8111 21.5501 42.4346 21.2051 41.9867 20.9803V20.9933Z" fill="#504CC8"/>
</svg>
