<svg width="32" height="32" viewBox="0 0 32 32" fill="none" xmlns="http://www.w3.org/2000/svg">
<path d="M25.44 14.72L9.96 6.98C9.75117 6.88325 9.52145 6.84026 9.29176 6.85495C9.06207 6.86965 8.83971 6.94156 8.64491 7.06414C8.45011 7.18672 8.28906 7.35607 8.17642 7.55679C8.06378 7.7575 8.00314 7.9832 8 8.21333V23.6867C7.99805 23.9229 8.05707 24.1556 8.17137 24.3624C8.28566 24.5692 8.45136 24.7429 8.65244 24.8669C8.85353 24.9909 9.0832 25.061 9.31926 25.0703C9.55532 25.0796 9.78979 25.0278 10 24.92L25.44 17.18C25.6687 17.0652 25.861 16.889 25.9954 16.6712C26.1297 16.4535 26.2009 16.2026 26.2009 15.9467C26.2009 15.6908 26.1297 15.4399 25.9954 15.2221C25.861 15.0043 25.6687 14.8281 25.44 14.7133V14.72Z" fill="#959595"/>
</svg>
