<svg width="36" height="52" viewBox="0 0 36 52" fill="none" xmlns="http://www.w3.org/2000/svg">
<path d="M17.5275 35.2921C21.5331 41.46 29.6916 43.2706 35.7502 39.3362L21.2449 17C15.1863 20.9345 13.522 29.1241 17.5275 35.2921Z" fill="#888888"/>
<path d="M12.6408 20.8066C19.6221 22.4827 26.7449 17.7466 28.5499 10.2282L3.26824 4.15863C1.46324 11.677 5.65948 19.1305 12.6408 20.8066Z" fill="#D5D5D5"/>
<path d="M4.2749 26C4.2749 40.3594 16.8109 52 32.2749 52V0C16.8109 0 4.2749 11.6406 4.2749 26Z" fill="#797979"/>
<path d="M15.9281 37.3675C19.9336 43.5355 28.0921 45.3461 34.1507 41.4116L19.6454 19.0754C13.5869 23.0099 11.9225 31.1996 15.9281 37.3675Z" fill="#B4B4B4"/>
<circle cx="23.7749" cy="10.5" r="3.5" fill="#242424"/>
</svg>
