<svg width="23" height="23" viewBox="0 0 23 23" fill="none" xmlns="http://www.w3.org/2000/svg">
<path fill-rule="evenodd" clip-rule="evenodd" d="M9 19.3333C9 19.687 8.85952 20.0261 8.60948 20.2761C8.35943 20.5262 8.02029 20.6667 7.66667 20.6667H6.33333C5.97971 20.6667 5.64057 20.5262 5.39052 20.2761C5.14048 20.0261 5 19.687 5 19.3333V3.33333C5 2.97971 5.14048 2.64057 5.39052 2.39052C5.64057 2.14048 5.97971 2 6.33333 2H7.66667C8.02029 2 8.35943 2.14048 8.60948 2.39052C8.85952 2.64057 9 2.97971 9 3.33333V19.3333ZM18.3333 19.3333C18.3333 19.687 18.1929 20.0261 17.9428 20.2761C17.6928 20.5262 17.3536 20.6667 17 20.6667H15.6667C15.313 20.6667 14.9739 20.5262 14.7239 20.2761C14.4738 20.0261 14.3333 19.687 14.3333 19.3333V3.33333C14.3333 2.97971 14.4738 2.64057 14.7239 2.39052C14.9739 2.14048 15.313 2 15.6667 2H17C17.3536 2 17.6928 2.14048 17.9428 2.39052C18.1929 2.64057 18.3333 2.97971 18.3333 3.33333V19.3333Z" fill="#010F1C"/>
</svg>
