<svg width="23" height="23" viewBox="0 0 23 23" fill="none" xmlns="http://www.w3.org/2000/svg">
<path d="M20.5468 10.2733L5.71175 2.85583C5.51162 2.7631 5.29147 2.72191 5.07136 2.73599C4.85124 2.75007 4.63814 2.81899 4.45145 2.93646C4.26477 3.05393 4.11043 3.21623 4.00249 3.40858C3.89454 3.60093 3.83642 3.81722 3.83342 4.03777V18.8664C3.83155 19.0928 3.88811 19.3158 3.99764 19.514C4.10717 19.7121 4.26597 19.8786 4.45867 19.9975C4.65138 20.1163 4.87148 20.1834 5.09771 20.1923C5.32393 20.2012 5.54863 20.1516 5.75009 20.0483L20.5468 12.6308C20.7659 12.5208 20.9502 12.352 21.079 12.1433C21.2077 11.9345 21.2759 11.6941 21.2759 11.4489C21.2759 11.2036 21.2077 10.9632 21.079 10.7545C20.9502 10.5458 20.7659 10.377 20.5468 10.2669V10.2733Z" fill="#010F1C"/>
</svg>
