<svg width="538" height="407" viewBox="0 0 538 407" fill="none" xmlns="http://www.w3.org/2000/svg">
<g clip-path="url(#clip0)">
<path opacity="0.24" d="M24.81 334.2C15.59 323.32 7.59 311.06 3.42 297.36C-5.85 266.72 5.21 233.78 18.87 204.84C31.97 177.06 54.98 140.9 55.46 109.5C55.55 103.83 54.06 98.27 53.18 92.66C51.3562 80.4514 52.3441 67.9876 56.0683 56.2188C59.7926 44.4499 66.1548 33.6868 74.67 24.75C88.2958 10.9481 106.396 2.45639 125.72 0.799996C186.3 -4.72 251.84 20.2 290.04 25.2C334.1 31.04 379.17 17.2 423.04 24.2C462.11 30.46 499.95 12.2 520.3 46.15C540.65 80.1 542.78 165.65 527.6 202.15C521.99 215.65 513.96 228.21 510.16 242.33C505.99 257.86 507.16 274.33 509.97 290.19C512.18 302.83 515.37 315.63 513.66 328.35C511.66 343.48 502.81 356.97 491.99 367.73C462.04 397.52 417.25 408.47 375.09 405.92C332.93 403.37 292.51 388.82 253.09 373.71C243.62 370.08 234.09 366.39 224.09 364.71C212.64 362.79 200.93 363.57 189.37 364.55C156.98 367.29 123.09 377.22 90.89 377.76C65.64 378.25 40.08 352.2 24.81 334.2Z" fill="#F7DF1E"/>
<path d="M86.9 183.73C86.9 183.73 80.72 197.32 79.47 209.58C78.22 221.84 85.36 239.39 85.36 239.39L89.84 219L86.9 183.73Z" fill="#F7DF1E"/>
<path opacity="0.26" d="M86.9 183.73C86.9 183.73 80.72 197.32 79.47 209.58C78.22 221.84 85.24 239.11 85.24 239.11L89.84 219L86.9 183.73Z" fill="url(#paint0_linear)"/>
<path d="M384.4 191.08C384.987 188.033 385.573 184.983 386.16 181.93C386.49 180.22 386.78 178.49 387.16 176.59C390.01 177.09 392.79 177.52 395.54 178.07C395.725 178.142 395.923 178.174 396.122 178.165C396.32 178.155 396.514 178.105 396.692 178.016C396.87 177.928 397.027 177.804 397.154 177.651C397.281 177.498 397.375 177.321 397.43 177.13C398.67 174.71 400.06 172.36 401.52 170.07C401.648 169.933 401.747 169.772 401.811 169.595C401.874 169.419 401.901 169.231 401.89 169.044C401.879 168.857 401.83 168.674 401.745 168.507C401.661 168.339 401.544 168.191 401.4 168.07C399.55 165.95 397.76 163.77 395.85 161.49L407.8 151.49C409.64 153.68 411.48 155.81 413.23 158C413.334 158.183 413.475 158.342 413.644 158.467C413.813 158.592 414.005 158.681 414.21 158.728C414.415 158.775 414.628 158.779 414.834 158.74C415.041 158.701 415.237 158.619 415.41 158.5C417.812 157.437 420.28 156.532 422.8 155.79C423.95 155.46 424.23 155 424.2 153.91C424.14 151.18 424.2 148.45 424.2 145.62H439.79C439.79 148.42 439.85 151.18 439.79 153.94C439.79 155.06 440.08 155.47 441.2 155.8C443.714 156.551 446.179 157.46 448.58 158.52C448.755 158.637 448.953 158.716 449.16 158.753C449.367 158.789 449.58 158.781 449.785 158.73C449.989 158.68 450.18 158.587 450.347 158.457C450.513 158.328 450.65 158.165 450.75 157.98C452.48 155.82 454.3 153.72 456.17 151.5L468.11 161.5L461.99 168.83C463.65 171.83 465.2 174.83 466.85 177.65C467.043 177.824 467.273 177.951 467.522 178.024C467.771 178.097 468.034 178.113 468.29 178.07C471.07 177.64 473.84 177.12 476.81 176.6C477.72 181.74 478.61 186.75 479.52 191.94C476.62 192.45 473.8 192.94 470.99 193.48C470.53 193.58 469.84 194.01 469.78 194.38C469.22 197.62 468.78 200.89 468.27 204.38L476.5 209.15L468.7 222.65L460.43 217.89C457.75 220.03 455.15 222.07 452.62 224.18C452.479 224.366 452.383 224.582 452.34 224.811C452.297 225.04 452.307 225.276 452.37 225.5C453.31 228.26 454.37 230.99 455.37 233.85L440.73 239.18C439.82 236.7 438.85 234.28 438.07 231.79C437.61 230.35 436.98 229.9 435.4 230.04C432.873 230.215 430.337 230.215 427.81 230.04C427.642 230 427.468 229.995 427.299 230.024C427.129 230.054 426.967 230.117 426.822 230.21C426.678 230.304 426.553 230.425 426.457 230.568C426.36 230.71 426.293 230.871 426.26 231.04C425.34 233.71 424.34 236.34 423.26 239.17L408.59 233.79L411.86 224.72L403.6 217.72L395.24 222.53L387.44 209.03C390.01 207.54 392.44 206.11 394.91 204.74C395.086 204.674 395.247 204.573 395.382 204.443C395.518 204.313 395.625 204.156 395.697 203.982C395.769 203.809 395.805 203.622 395.802 203.434C395.799 203.246 395.758 203.061 395.68 202.89C395.097 200.382 394.643 197.845 394.32 195.29C394.16 194.05 393.87 193.44 392.48 193.29C389.78 192.97 387.1 192.39 384.41 191.92L384.4 191.08ZM432.13 172.48C421.41 172.2 412.34 181.01 412 192.04C411.65 202.89 420.56 212.04 431.73 212.3C437.01 212.353 442.096 210.306 445.867 206.61C449.638 202.914 451.787 197.87 451.84 192.59C451.893 187.31 449.846 182.224 446.15 178.453C442.454 174.682 437.41 172.533 432.13 172.48V172.48Z" fill="#F7DF1E"/>
<path d="M384.4 191.08C384.987 188.033 385.573 184.983 386.16 181.93C386.49 180.22 386.78 178.49 387.16 176.59C390.01 177.09 392.79 177.52 395.54 178.07C395.725 178.142 395.923 178.174 396.122 178.165C396.32 178.155 396.514 178.105 396.692 178.016C396.87 177.928 397.027 177.804 397.154 177.651C397.281 177.498 397.375 177.321 397.43 177.13C398.67 174.71 400.06 172.36 401.52 170.07C401.648 169.933 401.747 169.772 401.811 169.595C401.874 169.419 401.901 169.231 401.89 169.044C401.879 168.857 401.83 168.674 401.745 168.507C401.661 168.339 401.544 168.191 401.4 168.07C399.55 165.95 397.76 163.77 395.85 161.49L407.8 151.49C409.64 153.68 411.48 155.81 413.23 158C413.334 158.183 413.475 158.342 413.644 158.467C413.813 158.592 414.005 158.681 414.21 158.728C414.415 158.775 414.628 158.779 414.834 158.74C415.041 158.701 415.237 158.619 415.41 158.5C417.812 157.437 420.28 156.532 422.8 155.79C423.95 155.46 424.23 155 424.2 153.91C424.14 151.18 424.2 148.45 424.2 145.62H439.79C439.79 148.42 439.85 151.18 439.79 153.94C439.79 155.06 440.08 155.47 441.2 155.8C443.714 156.551 446.179 157.46 448.58 158.52C448.755 158.637 448.953 158.716 449.16 158.753C449.367 158.789 449.58 158.781 449.785 158.73C449.989 158.68 450.18 158.587 450.347 158.457C450.513 158.328 450.65 158.165 450.75 157.98C452.48 155.82 454.3 153.72 456.17 151.5L468.11 161.5L461.99 168.83C463.65 171.83 465.2 174.83 466.85 177.65C467.043 177.824 467.273 177.951 467.522 178.024C467.771 178.097 468.034 178.113 468.29 178.07C471.07 177.64 473.84 177.12 476.81 176.6C477.72 181.74 478.61 186.75 479.52 191.94C476.62 192.45 473.8 192.94 470.99 193.48C470.53 193.58 469.84 194.01 469.78 194.38C469.22 197.62 468.78 200.89 468.27 204.38L476.5 209.15L468.7 222.65L460.43 217.89C457.75 220.03 455.15 222.07 452.62 224.18C452.479 224.366 452.383 224.582 452.34 224.811C452.297 225.04 452.307 225.276 452.37 225.5C453.31 228.26 454.37 230.99 455.37 233.85L440.73 239.18C439.82 236.7 438.85 234.28 438.07 231.79C437.61 230.35 436.98 229.9 435.4 230.04C432.873 230.215 430.337 230.215 427.81 230.04C427.642 230 427.468 229.995 427.299 230.024C427.129 230.054 426.967 230.117 426.822 230.21C426.678 230.304 426.553 230.425 426.457 230.568C426.36 230.71 426.293 230.871 426.26 231.04C425.34 233.71 424.34 236.34 423.26 239.17L408.59 233.79L411.86 224.72L403.6 217.72L395.24 222.53L387.44 209.03C390.01 207.54 392.44 206.11 394.91 204.74C395.086 204.674 395.247 204.573 395.382 204.443C395.518 204.313 395.625 204.156 395.697 203.982C395.769 203.809 395.805 203.622 395.802 203.434C395.799 203.246 395.758 203.061 395.68 202.89C395.097 200.382 394.643 197.845 394.32 195.29C394.16 194.05 393.87 193.44 392.48 193.29C389.78 192.97 387.1 192.39 384.41 191.92L384.4 191.08ZM432.13 172.48C421.41 172.2 412.34 181.01 412 192.04C411.65 202.89 420.56 212.04 431.73 212.3C437.01 212.353 442.096 210.306 445.867 206.61C449.638 202.914 451.787 197.87 451.84 192.59C451.893 187.31 449.846 182.224 446.15 178.453C442.454 174.682 437.41 172.533 432.13 172.48V172.48Z" fill="url(#paint1_linear)"/>
<path d="M405 82H135.38C126.532 82 119.36 89.1724 119.36 98.02V260.93C119.36 269.778 126.532 276.95 135.38 276.95H405C413.848 276.95 421.02 269.778 421.02 260.93V98.02C421.02 89.1724 413.848 82 405 82Z" fill="#F7DF1E"/>
<path d="M396.12 89.54H141.71C133.359 89.54 126.59 96.3095 126.59 104.66V258.37C126.59 266.721 133.359 273.49 141.71 273.49H396.12C404.471 273.49 411.24 266.721 411.24 258.37V104.66C411.24 96.3095 404.471 89.54 396.12 89.54Z" fill="white"/>
<path opacity="0.26" d="M119.37 227.53L126.86 224.53C126.86 224.53 137.64 218.11 138.4 215.81C138.856 214.473 139.175 213.092 139.35 211.69L141.94 209.57C142.455 208.426 142.598 207.15 142.35 205.92C141.88 204.09 119.35 221.06 119.35 221.06L119.37 227.53Z" fill="url(#paint2_linear)"/>
<path d="M142.22 208.52C141.447 208.541 140.692 208.286 140.09 207.8C138.56 206.55 138.49 204 138.45 202.63C138.439 202.333 138.491 202.038 138.601 201.762C138.711 201.487 138.878 201.237 139.09 201.03C140.35 199.77 143.14 199.83 143.43 199.83V201.5C142.344 201.391 141.251 201.64 140.32 202.21C140.266 202.255 140.224 202.312 140.196 202.376C140.168 202.44 140.156 202.51 140.16 202.58C140.16 203.68 140.25 205.74 141.16 206.51C141.398 206.673 141.669 206.783 141.954 206.831C142.239 206.879 142.531 206.865 142.81 206.79L143.09 208.44C142.803 208.491 142.512 208.517 142.22 208.52V208.52Z" fill="#F7DF1E"/>
<path d="M142.22 208.49C141.448 208.515 140.693 208.263 140.09 207.78C138.56 206.53 138.49 203.98 138.45 202.61C138.44 202.312 138.492 202.015 138.602 201.738C138.712 201.461 138.878 201.21 139.09 201C140.35 199.75 143.14 199.8 143.43 199.8V201.48C142.344 201.371 141.251 201.62 140.32 202.19C140.266 202.235 140.224 202.292 140.196 202.356C140.168 202.42 140.156 202.49 140.16 202.56C140.16 203.66 140.25 205.72 141.16 206.49C141.398 206.653 141.669 206.763 141.954 206.811C142.239 206.859 142.531 206.845 142.81 206.77L143.09 208.42C142.802 208.467 142.511 208.491 142.22 208.49V208.49Z" fill="url(#paint3_linear)"/>
<g opacity="0.52">
<path opacity="0.52" d="M234.94 107.14H167.36V112.1H234.94V107.14Z" fill="#F7DF1E"/>
<path opacity="0.52" d="M208.61 116.73H167.36V121.39H208.61V116.73Z" fill="#F7DF1E"/>
<path opacity="0.52" d="M355.05 116.73H225.25V121.41H355.05V116.73Z" fill="#F7DF1E"/>
<path opacity="0.52" d="M245.53 126.34H188.81V131.25H245.53V126.34Z" fill="#F7DF1E"/>
<path opacity="0.52" d="M274.6 135.93H207.02V140.89H274.6V135.93Z" fill="#F7DF1E"/>
<path opacity="0.52" d="M335.65 135.93H279.01V141.43H335.65V135.93Z" fill="#F7DF1E"/>
<path opacity="0.52" d="M259.11 145.52H206.92V150.18H259.11V145.52Z" fill="#F7DF1E"/>
<path opacity="0.52" d="M371.79 145.52H264.11V150.68H371.79V145.52Z" fill="#F7DF1E"/>
<path opacity="0.52" d="M234.94 158.5H167.36V163.46H234.94V158.5Z" fill="#F7DF1E"/>
<path opacity="0.52" d="M208.61 168.09H167.36V172.75H208.61V168.09Z" fill="#F7DF1E"/>
<path opacity="0.52" d="M355.05 168.09H225.25V172.77H355.05V168.09Z" fill="#F7DF1E"/>
<path opacity="0.52" d="M245.53 177.68H188.81V182.59H245.53V177.68Z" fill="#F7DF1E"/>
<path opacity="0.52" d="M274.6 187.3H207.02V192.26H274.6V187.3Z" fill="#F7DF1E"/>
<path opacity="0.52" d="M335.65 187.3H279.01V192.8H335.65V187.3Z" fill="#F7DF1E"/>
<path opacity="0.52" d="M259.11 196.89H206.92V201.55H259.11V196.89Z" fill="#F7DF1E"/>
<path opacity="0.52" d="M371.79 196.89H264.11V202.05H371.79V196.89Z" fill="#F7DF1E"/>
<path opacity="0.52" d="M234.94 209.86H167.36V214.82H234.94V209.86Z" fill="#F7DF1E"/>
<path opacity="0.52" d="M208.61 219.45H167.36V224.11H208.61V219.45Z" fill="#F7DF1E"/>
<path opacity="0.52" d="M355.05 219.45H225.25V224.13H355.05V219.45Z" fill="#F7DF1E"/>
<path opacity="0.52" d="M245.53 229.04H188.81V233.95H245.53V229.04Z" fill="#F7DF1E"/>
<path opacity="0.52" d="M274.6 238.63H207.02V243.59H274.6V238.63Z" fill="#F7DF1E"/>
<path opacity="0.52" d="M335.65 238.63H279.01V244.13H335.65V238.63Z" fill="#F7DF1E"/>
<path opacity="0.52" d="M259.11 248.25H206.92V252.91H259.11V248.25Z" fill="#F7DF1E"/>
<path opacity="0.52" d="M371.79 248.25H264.11V253.41H371.79V248.25Z" fill="#F7DF1E"/>
</g>
<path d="M129.03 275.48L72.94 317.7H465.56L410.73 274.84L129.03 275.48Z" fill="#F7DF1E"/>
<path d="M129.03 275.48L72.94 317.7H465.56L410.73 274.84L129.03 275.48Z" fill="url(#paint4_linear)"/>
<path opacity="0.26" d="M96.48 304.44L132.36 307.88C133.23 307.96 134.24 308.14 134.64 308.88C134.796 309.292 134.797 309.746 134.643 310.159C134.488 310.571 134.189 310.913 133.8 311.12C133.007 311.515 132.125 311.701 131.24 311.66L93.42 313.2C91.6087 313.424 89.7701 313.194 88.07 312.53C86.43 311.74 85.21 309.78 85.86 308.08C86.63 306.08 89.2 305.69 91.33 305.59" fill="url(#paint5_linear)"/>
<path d="M89.01 333.14L72.94 317.7H465.56L451.06 334.08L89.01 333.14Z" fill="#F7DF1E"/>
<path d="M89.01 333.14L72.94 317.7H465.56L451.06 334.08L89.01 333.14Z" fill="url(#paint6_linear)"/>
<path opacity="0.58" d="M108.86 295.43L426.49 295.01L409.47 281.15H128.4L108.86 295.43Z" fill="#F7DF1E"/>
<g opacity="0.24">
<path opacity="0.24" d="M366.2 40.05V98.2C366.2 101.617 364.843 104.894 362.428 107.311C360.013 109.728 356.737 111.087 353.32 111.09H292.05L273.97 129.17L259.84 111.09H197.13C195.439 111.089 193.765 110.754 192.203 110.106C190.642 109.457 189.223 108.507 188.029 107.31C186.835 106.113 185.888 104.692 185.243 103.129C184.598 101.566 184.267 99.891 184.27 98.2V40.05C184.281 36.6435 185.639 33.3797 188.049 30.9718C190.459 28.564 193.723 27.2079 197.13 27.2H353.32C356.728 27.2079 359.995 28.5633 362.408 30.9706C364.821 33.3779 366.184 36.6417 366.2 40.05V40.05Z" fill="#F7DF1E"/>
</g>
<path d="M353.32 19.47H197.14C190.027 19.47 184.26 25.2366 184.26 32.35V90.49C184.26 97.6034 190.027 103.37 197.14 103.37H353.32C360.433 103.37 366.2 97.6034 366.2 90.49V32.35C366.2 25.2366 360.433 19.47 353.32 19.47Z" fill="white"/>
<path opacity="0.58" d="M225.13 311.08L241.84 297.85L302.96 297.53L320.61 310.77L225.13 311.08Z" fill="#F7DF1E"/>
<path d="M257 99.91L273.97 121.59L294.71 100.85L257 99.91Z" fill="white"/>
<path d="M195.89 60L210.74 52.36V54.57L198.23 60.84V60.9L210.74 67.2V69.41L195.89 61.73V60Z" fill="#F7DF1E"/>
<path d="M211.42 73.85C212.552 73.8566 213.645 73.4351 214.48 72.67C215.25 71.77 215.54 70.56 215.54 66.85V53.85H218.36V67.85C218.36 70.85 217.88 72.85 216.5 74.21C215.173 75.3699 213.463 75.9969 211.7 75.97L211.42 73.85ZM218.68 49.55C218.692 49.7829 218.654 50.0157 218.57 50.2329C218.485 50.4502 218.355 50.6471 218.189 50.8105C218.022 50.974 217.823 51.1004 217.605 51.1813C217.386 51.2622 217.153 51.2959 216.92 51.28C216.691 51.2869 216.463 51.2469 216.25 51.1624C216.037 51.0779 215.843 50.9508 215.681 50.7887C215.519 50.6267 215.392 50.4332 215.308 50.2202C215.223 50.0071 215.183 49.7791 215.19 49.55C215.186 49.3152 215.229 49.0819 215.318 48.8645C215.407 48.6471 215.539 48.45 215.707 48.2854C215.874 48.1207 216.074 47.9919 216.292 47.9067C216.511 47.8215 216.745 47.7818 216.98 47.79C217.21 47.7855 217.438 47.8285 217.65 47.9161C217.862 48.0038 218.054 48.1343 218.214 48.2995C218.373 48.4646 218.497 48.661 218.577 48.8761C218.657 49.0913 218.692 49.3207 218.68 49.55Z" fill="#F7DF1E"/>
<path d="M231.53 69.38L231.31 67.38H231.21C230.661 68.1114 229.945 68.7014 229.123 69.1014C228.3 69.5013 227.394 69.6997 226.48 69.68C225.871 69.7243 225.26 69.6418 224.684 69.4376C224.109 69.2333 223.583 68.9119 223.138 68.4936C222.693 68.0753 222.34 67.5692 222.101 67.0075C221.863 66.4457 221.743 65.8404 221.75 65.23C221.75 61.49 225.07 59.44 231.05 59.47V59.2C231.05 57.92 230.7 55.62 227.54 55.62C226.126 55.6252 224.741 56.0234 223.54 56.77L222.9 54.91C224.431 53.9847 226.191 53.5066 227.98 53.53C232.72 53.53 233.87 56.77 233.87 59.87V65.65C233.849 66.8948 233.932 68.1392 234.12 69.37L231.53 69.38ZM231.12 61.48C228.05 61.41 224.56 61.96 224.56 64.96C224.53 65.3182 224.578 65.6786 224.701 66.0165C224.824 66.3543 225.018 66.6616 225.271 66.9172C225.524 67.1728 225.829 67.3706 226.165 67.4971C226.502 67.6236 226.861 67.6758 227.22 67.65C228.037 67.67 228.84 67.43 229.512 66.9645C230.184 66.499 230.691 65.8322 230.96 65.06C231.057 64.7693 231.111 64.4662 231.12 64.16V61.48Z" fill="#F7DF1E"/>
<path d="M239.22 53.9L242.22 62.6C242.704 63.9104 243.118 65.2456 243.46 66.6H243.56C243.91 65.32 244.36 64.04 244.87 62.6L247.87 53.9H250.81L244.73 69.38H242.05L236.21 53.9H239.22Z" fill="#F7DF1E"/>
<path d="M261.96 69.38L261.74 67.38H261.64C261.091 68.1114 260.375 68.7014 259.553 69.1014C258.73 69.5013 257.824 69.6997 256.91 69.68C256.301 69.7243 255.69 69.6418 255.114 69.4376C254.539 69.2333 254.012 68.9119 253.568 68.4936C253.123 68.0753 252.77 67.5692 252.531 67.0075C252.292 66.4457 252.173 65.8404 252.18 65.23C252.18 61.49 255.5 59.44 261.48 59.47V59.2C261.48 57.92 261.13 55.62 257.97 55.62C256.556 55.6284 255.172 56.0263 253.97 56.77L253.33 54.91C254.865 53.9858 256.628 53.5079 258.42 53.53C263.15 53.53 264.3 56.77 264.3 59.87V65.65C264.282 66.8951 264.369 68.1395 264.56 69.37L261.96 69.38ZM261.55 61.48C258.48 61.41 254.99 61.96 254.99 64.96C254.96 65.3182 255.008 65.6786 255.131 66.0165C255.254 66.3543 255.448 66.6616 255.701 66.9172C255.954 67.1728 256.259 67.3706 256.595 67.4971C256.932 67.6236 257.291 67.6758 257.65 67.65C258.467 67.67 259.27 67.43 259.942 66.9645C260.614 66.499 261.121 65.8322 261.39 65.06C261.497 64.7841 261.564 64.4946 261.59 64.2L261.55 61.48Z" fill="#F7DF1E"/>
<path d="M268.43 66.5C269.545 67.1963 270.826 67.5829 272.14 67.62C274.19 67.62 275.14 66.62 275.14 65.31C275.14 64 274.35 63.24 272.27 62.47C269.48 61.47 268.17 59.94 268.17 58.09C268.17 55.59 270.17 53.54 273.51 53.54C274.845 53.5355 276.159 53.8802 277.32 54.54L276.61 56.54C275.66 55.9553 274.566 55.6471 273.45 55.65C271.79 55.65 270.86 56.65 270.86 57.76C270.86 58.87 271.79 59.61 273.8 60.38C276.49 61.38 277.86 62.75 277.86 65.05C277.86 67.77 275.75 69.69 272.08 69.69C270.563 69.7181 269.064 69.3529 267.73 68.63L268.43 66.5Z" fill="#F7DF1E"/>
<path d="M292.52 68.8C291.121 69.4225 289.601 69.7297 288.07 69.7C283.4 69.7 280.36 66.53 280.36 61.8C280.36 57.07 283.62 53.58 288.68 53.58C290.022 53.5627 291.353 53.8355 292.58 54.38L291.94 56.55C290.934 56.0303 289.811 55.7788 288.68 55.82C285.13 55.82 283.21 58.44 283.21 61.67C283.21 65.25 285.51 67.46 288.58 67.46C289.776 67.4653 290.959 67.2022 292.04 66.69L292.52 68.8Z" fill="#F7DF1E"/>
<path d="M295.82 58.73C295.82 56.9 295.82 55.34 295.69 53.9H298.15L298.25 56.9H298.37C298.635 55.9532 299.193 55.1144 299.963 54.5037C300.734 53.893 301.678 53.5417 302.66 53.5C302.93 53.4999 303.199 53.5335 303.46 53.6V56.3C303.132 56.224 302.796 56.1904 302.46 56.2C300.46 56.2 299.07 57.7 298.68 59.81C298.606 60.2463 298.566 60.6876 298.56 61.13V69.38H295.78L295.82 58.73Z" fill="#F7DF1E"/>
<path d="M309.59 49.55C309.59 50.0115 309.407 50.4541 309.08 50.7804C308.754 51.1067 308.311 51.29 307.85 51.29C307.389 51.29 306.946 51.1067 306.62 50.7804C306.293 50.4541 306.11 50.0115 306.11 49.55C306.103 49.317 306.144 49.085 306.23 48.8684C306.316 48.6517 306.445 48.4549 306.61 48.2901C306.775 48.1253 306.972 47.9959 307.188 47.9099C307.405 47.8239 307.637 47.7831 307.87 47.79C308.101 47.7827 308.331 47.8236 308.546 47.91C308.761 47.9964 308.955 48.1265 309.117 48.292C309.279 48.4574 309.404 48.6547 309.486 48.8713C309.567 49.0878 309.603 49.319 309.59 49.55V49.55ZM306.46 69.38V53.9H309.27V69.38H306.46Z" fill="#F7DF1E"/>
<path d="M313.9 58.95C313.9 56.95 313.83 55.37 313.77 53.95H316.29L316.42 56.6H316.48C317.042 55.6493 317.851 54.8684 318.821 54.3403C319.791 53.8121 320.886 53.5563 321.99 53.6C325.73 53.6 328.54 56.77 328.54 61.47C328.54 67.04 325.15 69.79 321.54 69.79C320.603 69.8296 319.672 69.6267 318.836 69.201C318 68.7753 317.289 68.1412 316.77 67.36H316.71V75.77H313.93L313.9 58.95ZM316.68 63.08C316.687 63.4661 316.727 63.8508 316.8 64.23C317.037 65.1719 317.582 66.0075 318.348 66.6037C319.115 67.1999 320.059 67.5225 321.03 67.52C324.03 67.52 325.73 65.09 325.73 61.52C325.73 58.42 324.1 55.77 321.12 55.77C320.126 55.7978 319.17 56.1545 318.401 56.7843C317.632 57.4141 317.093 58.2813 316.87 59.25C316.756 59.6232 316.692 60.0099 316.68 60.4V63.08Z" fill="#F7DF1E"/>
<path d="M335.49 49.45V53.9H339.49V56.04H335.49V64.39C335.49 66.3 336.03 67.39 337.6 67.39C338.149 67.4001 338.698 67.3362 339.23 67.2L339.36 69.31C338.559 69.5957 337.71 69.728 336.86 69.7C336.304 69.7286 335.748 69.6371 335.23 69.4317C334.713 69.2264 334.245 68.912 333.86 68.51C333.06 67.68 332.77 66.3 332.77 64.51V56.04H330.37V53.9H332.77V50.2L335.49 49.45Z" fill="#F7DF1E"/>
<path d="M357.3 61.77L342.46 69.38V67.2L355.06 60.93V60.87L342.46 54.6V52.36L357.3 59.97V61.77Z" fill="#F7DF1E"/>
<path d="M163.28 166.27L141.87 160.5L130.89 186L134.52 193.07L149.22 192.23L163.28 166.27Z" fill="url(#paint7_linear)"/>
<path d="M114.65 230.31L110.32 302.71L102.43 303.87L98.83 248.87L95.59 303.74L87.77 303.99C87.77 303.99 84.14 248.6 84.94 244.54C85.74 240.48 84.94 227.54 84.94 227.54L114.65 230.31Z" fill="#606161"/>
<path d="M115.89 223.28C119.71 220.96 123.42 211.13 121.77 208.75C119.77 205.87 116.83 186.01 114.22 183.75C111.693 181.353 108.353 179.999 104.87 179.96C100.81 180.11 96.33 178.21 92.55 179.75C90.4517 180.75 88.5407 182.103 86.9 183.75C84.19 186.18 82.07 227.15 85.12 231.6C89.01 237.29 97.03 237.48 103.81 237.09C106.15 236.96 108.59 236.79 110.64 235.61C115.8 232.61 116.44 229.31 115.89 223.28Z" fill="#F7DF1E"/>
<path d="M131.73 205.6C132.291 205.313 132.933 205.225 133.55 205.35C133.894 205.493 134.199 205.716 134.44 206C135.697 207.294 136.68 208.827 137.33 210.51C137.71 211.297 137.796 212.195 137.57 213.04C137.125 213.928 136.387 214.635 135.48 215.04C129.48 218.52 122.18 223.48 115.24 222.81C114.75 222.81 114.92 221.31 114.56 220.99C114.163 220.525 113.95 219.931 113.96 219.32C113.649 217.117 113.582 214.887 113.76 212.67C113.951 210.433 114.88 208.323 116.4 206.67C116.995 206.001 117.812 205.571 118.7 205.46C120.05 205.38 119.95 206.46 120.7 206.88C121.827 207.379 123.065 207.573 124.29 207.44C126.857 207.256 129.373 206.634 131.73 205.6V205.6Z" fill="#F7DF1E"/>
<path opacity="0.26" d="M107.59 200.78C107.59 200.78 109.85 218.69 115.89 223.28C115.89 223.28 117.97 234.37 108.41 236.28C106.076 237.052 103.6 237.298 101.16 237C101.16 237 110.46 239.81 108.71 221.17C106.96 202.53 107.59 200.78 107.59 200.78Z" fill="url(#paint8_linear)"/>
<path d="M115.99 307.72C116.124 307.832 116.234 307.971 116.312 308.127C116.389 308.284 116.433 308.455 116.44 308.63C116.402 308.886 116.274 309.12 116.08 309.29C115.382 309.867 114.523 310.216 113.62 310.29C110.714 310.722 107.751 310.558 104.91 309.81C104.195 309.672 103.537 309.324 103.02 308.81C102.505 308.053 102.265 307.143 102.34 306.23L102.26 303.08C102.23 302.837 102.258 302.591 102.34 302.36C102.58 301.78 103.34 301.64 103.94 301.59C105.431 301.478 106.926 301.452 108.42 301.51C108.95 301.51 109.63 301.43 110.05 301.77C110.47 302.11 110.62 302.77 110.9 303.11C112.34 304.9 114.44 306.02 115.99 307.72Z" fill="#606161"/>
<path d="M101.03 307.73C101.159 307.841 101.264 307.977 101.338 308.13C101.411 308.283 101.453 308.45 101.46 308.62C101.426 308.866 101.301 309.091 101.11 309.25C100.436 309.8 99.608 310.129 98.74 310.19C95.934 310.61 93.0717 310.45 90.33 309.72C89.639 309.599 89.001 309.271 88.5 308.78C88.0021 308.046 87.7693 307.164 87.84 306.28L87.76 303.28C87.736 303.044 87.7632 302.805 87.84 302.58C88.07 302.02 88.78 301.89 89.38 301.84C90.821 301.738 92.2663 301.712 93.71 301.76C94.2498 301.687 94.7992 301.774 95.29 302.01C95.6 302.27 95.84 303.01 96.11 303.31C97.5 305.01 99.53 306.1 101.03 307.73Z" fill="#606161"/>
<path d="M95.86 179.64C95.915 180.252 96.201 180.821 96.66 181.23C97.0053 181.426 97.393 181.536 97.79 181.55C99.3101 181.723 100.841 181.787 102.37 181.74C102.486 181.75 102.601 181.721 102.7 181.66C102.767 181.594 102.816 181.511 102.84 181.42C103.4 179.77 102.35 177.71 103.37 176.3C104.03 175.39 105.3 175.14 106.07 174.3C106.98 173.3 106.96 171.85 106.9 170.53L106.59 164.4C106.6 163.883 106.494 163.37 106.28 162.9C105.831 162.289 105.184 161.851 104.45 161.66C102.57 160.809 100.51 160.431 98.45 160.56C97.9785 160.606 97.5203 160.741 97.1 160.96C96.6762 161.232 96.2982 161.57 95.98 161.96C95.1441 162.839 94.4915 163.876 94.06 165.01C93.7315 166.398 93.7076 167.841 93.99 169.24C94.1298 171.002 94.4652 172.742 94.99 174.43C95.59 176.13 95.51 177.92 95.86 179.64Z" fill="url(#paint9_linear)"/>
<path d="M108.59 156.41C107.9 153.98 104.98 152.29 102.66 153.29C102.031 153.617 101.42 153.978 100.83 154.37C99.67 155.03 98.34 155.31 97.13 155.88C95.7119 156.624 94.4811 157.68 93.5301 158.969C92.5792 160.258 91.9329 161.745 91.64 163.32C91.0743 166.479 91.3502 169.731 92.44 172.75C92.6746 173.677 93.1272 174.534 93.76 175.25C94.8997 176.163 96.301 176.688 97.76 176.75C98.1513 176.896 98.5744 176.934 98.9855 176.861C99.3967 176.789 99.7808 176.607 100.098 176.336C100.415 176.064 100.654 175.713 100.79 175.318C100.926 174.923 100.953 174.499 100.87 174.09C100.947 173.692 100.916 173.282 100.78 172.9C100.615 172.612 100.39 172.363 100.12 172.17C99.4542 171.715 98.95 171.06 98.68 170.3C98.49 169.52 98.97 168.53 99.77 168.5C100.57 168.47 101.18 169.5 101.43 170.42C101.638 170.218 101.785 169.962 101.854 169.681C101.923 169.4 101.911 169.105 101.82 168.83C101.638 168.277 101.494 167.713 101.39 167.14C101.22 164.63 104.39 164.14 105.91 162.98C107.94 161.46 109.32 158.95 108.59 156.41Z" fill="#606161"/>
<path d="M151.68 198.14H145.16C143.967 198.14 143 199.107 143 200.3V208.23C143 209.423 143.967 210.39 145.16 210.39H151.68C152.873 210.39 153.84 209.423 153.84 208.23V200.3C153.84 199.107 152.873 198.14 151.68 198.14Z" fill="#F7DF1E"/>
<path d="M151.68 198.14H145.16C143.967 198.14 143 199.107 143 200.3V208.23C143 209.423 143.967 210.39 145.16 210.39H151.68C152.873 210.39 153.84 209.423 153.84 208.23V200.3C153.84 199.107 152.873 198.14 151.68 198.14Z" fill="url(#paint10_linear)"/>
<path d="M136.68 202.92C136.821 202.722 137.004 202.557 137.217 202.44C137.43 202.322 137.667 202.254 137.91 202.24C138.132 202.283 138.35 202.347 138.56 202.43C139.07 202.479 139.585 202.418 140.07 202.25C140.313 202.166 140.575 202.151 140.826 202.208C141.077 202.264 141.307 202.39 141.49 202.57C141.646 202.822 141.726 203.114 141.72 203.41L142 206.59C142.02 206.82 142.02 207.05 142 207.28C141.951 207.496 141.881 207.708 141.79 207.91C141.649 208.284 141.464 208.64 141.24 208.97C140.75 209.567 140.074 209.983 139.32 210.15C138.573 210.3 137.812 210.37 137.05 210.36H135.86C135.668 210.37 135.476 210.349 135.29 210.3C134.924 210.108 134.643 209.787 134.5 209.4C134.298 209.038 134.133 208.656 134.01 208.26C133.83 207.63 133.83 206.96 133.71 206.32C133.63 205.87 133.57 205.58 133.97 205.32C134.945 204.604 135.852 203.801 136.68 202.92V202.92Z" fill="url(#paint11_linear)"/>
<path opacity="0.26" d="M153 199.2C153 199.34 152.87 199.44 152.6 199.54C149.855 200.247 146.975 200.247 144.23 199.54C143.96 199.44 143.83 199.34 143.83 199.2C143.83 198.74 145.83 198.33 148.42 198.33C151.01 198.33 153 198.75 153 199.2Z" fill="url(#paint12_linear)"/>
<path opacity="0.26" d="M152.59 199.55C149.845 200.257 146.965 200.257 144.22 199.55C146.97 198.883 149.84 198.883 152.59 199.55Z" fill="url(#paint13_linear)"/>
<path opacity="0.26" d="M139.59 191.31C136.1 185.95 135.24 178.63 138.47 173.1C139.47 171.32 140.94 169.74 141.63 167.79C142.58 165.13 142.01 162.19 142.29 159.37C142.348 158.174 142.75 157.021 143.45 156.05C144.129 155.259 145.038 154.699 146.05 154.45C150.18 153.34 154.81 157.21 154.45 161.45C154.13 165.24 150.65 168.4 150.96 172.19C151.35 176.83 157.25 180 156.61 184.61C156.15 187.87 152.44 190.22 152.69 193.5C152.82 195.14 153.93 196.92 153 198.28C151.74 200.12 145.7 200.17 144.11 198.93C142.31 197.55 140.85 193.27 139.59 191.31Z" fill="url(#paint14_linear)"/>
</g>
<defs>
<linearGradient id="paint0_linear" x1="79.32" y1="211.42" x2="89.84" y2="211.42" gradientUnits="userSpaceOnUse">
<stop stop-color="#010101" stop-opacity="0"/>
<stop offset="0.95" stop-color="#010101"/>
</linearGradient>
<linearGradient id="paint1_linear" x1="46343.5" y1="18163.4" x2="29606.9" y2="19075.3" gradientUnits="userSpaceOnUse">
<stop stop-color="#010101" stop-opacity="0"/>
<stop offset="0.95" stop-color="#010101"/>
</linearGradient>
<linearGradient id="paint2_linear" x1="3694.42" y1="5149.33" x2="3590.09" y2="4737.48" gradientUnits="userSpaceOnUse">
<stop stop-color="#010101" stop-opacity="0"/>
<stop offset="0.95" stop-color="#010101"/>
</linearGradient>
<linearGradient id="paint3_linear" x1="138.21" y1="203.95" x2="147.32" y2="204.35" gradientUnits="userSpaceOnUse">
<stop stop-color="white" stop-opacity="0"/>
<stop offset="0.95" stop-color="white"/>
</linearGradient>
<linearGradient id="paint4_linear" x1="105562" y1="11214.9" x2="105565" y2="14178" gradientUnits="userSpaceOnUse">
<stop stop-color="white" stop-opacity="0"/>
<stop offset="0.95" stop-color="white"/>
</linearGradient>
<linearGradient id="paint5_linear" x1="6720.76" y1="2927.49" x2="6703.06" y2="3325.77" gradientUnits="userSpaceOnUse">
<stop stop-color="#010101" stop-opacity="0"/>
<stop offset="0.95" stop-color="#010101"/>
</linearGradient>
<linearGradient id="paint6_linear" x1="104549" y1="5991.72" x2="104557" y2="4189.45" gradientUnits="userSpaceOnUse">
<stop stop-color="#010101" stop-opacity="0"/>
<stop offset="0.95" stop-color="#010101"/>
</linearGradient>
<linearGradient id="paint7_linear" x1="-25647.3" y1="4762.14" x2="-25584.4" y2="6602.33" gradientUnits="userSpaceOnUse">
<stop stop-color="white" stop-opacity="0"/>
<stop offset="0.95" stop-color="white"/>
</linearGradient>
<linearGradient id="paint8_linear" x1="-12080.8" y1="8703.18" x2="-11257.5" y2="8323.47" gradientUnits="userSpaceOnUse">
<stop stop-color="#010101" stop-opacity="0"/>
<stop offset="0.95" stop-color="#010101"/>
</linearGradient>
<linearGradient id="paint9_linear" x1="93.81" y1="171.13" x2="106.92" y2="171.13" gradientUnits="userSpaceOnUse">
<stop stop-color="#E5C6D6"/>
<stop offset="0.42" stop-color="#EAD4D0"/>
<stop offset="1" stop-color="#F0E9CB"/>
</linearGradient>
<linearGradient id="paint10_linear" x1="1758.48" y1="2811.06" x2="1742.17" y2="2597.69" gradientUnits="userSpaceOnUse">
<stop stop-color="white" stop-opacity="0"/>
<stop offset="0.95" stop-color="white"/>
</linearGradient>
<linearGradient id="paint11_linear" x1="1430.47" y1="1906.14" x2="1500.47" y2="1906.14" gradientUnits="userSpaceOnUse">
<stop stop-color="#E5C6D6"/>
<stop offset="0.42" stop-color="#EAD4D0"/>
<stop offset="1" stop-color="#F0E9CB"/>
</linearGradient>
<linearGradient id="paint12_linear" x1="148.34" y1="195.44" x2="148.43" y2="199.68" gradientUnits="userSpaceOnUse">
<stop stop-color="#010101" stop-opacity="0"/>
<stop offset="0.89" stop-color="#010101"/>
</linearGradient>
<linearGradient id="paint13_linear" x1="1565.28" y1="404.144" x2="1565.28" y2="406.751" gradientUnits="userSpaceOnUse">
<stop stop-color="#010101" stop-opacity="0"/>
<stop offset="0.89" stop-color="#010101"/>
</linearGradient>
<linearGradient id="paint14_linear" x1="3417.16" y1="8066.11" x2="5224.42" y2="8684.48" gradientUnits="userSpaceOnUse">
<stop stop-color="#010101" stop-opacity="0"/>
<stop offset="0.95" stop-color="#010101"/>
</linearGradient>
<clipPath id="clip0">
<rect width="537.53" height="406.34" fill="white"/>
</clipPath>
</defs>
</svg>
